<?xml version="1.0" encoding="utf-8"?>
<!-- Generator: Adobe Illustrator 19.0.0, SVG Export Plug-In . SVG Version: 6.00 Build 0)  -->
<svg version="1.1" xmlns="http://www.w3.org/2000/svg" xmlns:xlink="http://www.w3.org/1999/xlink" x="0px" y="0px"
	 viewBox="0 0 790.2 187.8" style="enable-background:new 0 0 790.2 187.8;" xml:space="preserve">
<style type="text/css">
	.st0{fill:#CCCCCC;}
	.st1{fill:#214252;}
</style>
<g id="Layer_1">
	<g id="XMLID_2_">
		<path id="XMLID_107_" class="st0" d="M70.5,40.7c6.5,0,11.8,2,15.9,6.1c4.1,4.1,6.1,9.4,6.1,15.9v67.7c0,3.3-0.5,6.3-1.6,9
			c-1.1,2.7-2.6,5-4.5,6.9c-1.9,1.9-4.2,3.4-7,4.5c-2.7,1.1-5.7,1.6-8.9,1.6H12.3V40.7H70.5z M64.9,131.4c3.5,0,5.3-1.8,5.3-5.3v-59
			c0-3.5-1.8-5.3-5.3-5.3H34.6v69.5H64.9z"/>
		<path id="XMLID_111_" class="st0" d="M114.4,40.7h22.4v44.1h38.5V40.7h22.4v111.8h-22.4v-46.6h-38.5v46.6h-22.4V40.7z"/>
		<path id="XMLID_113_" class="st0" d="M328.9,152.5h-21.1V78l-24.2,56.7h-16.1L243.2,78v74.5h-21.1V40.7h24.5l28.9,65.5l28.9-65.5
			h24.5V152.5z"/>
		<path id="XMLID_115_" class="st0" d="M410.2,40.1c6.5,0,11.8,2,15.9,6.1c4.1,4.1,6.1,9.4,6.1,15.9v68.9c0,3.3-0.5,6.3-1.6,9
			c-1.1,2.7-2.6,5-4.5,6.9c-1.9,1.9-4.2,3.4-7,4.5c-2.7,1.1-5.7,1.6-8.9,1.6h-37.4c-3.3,0-6.3-0.5-9-1.6c-2.7-1.1-5-2.6-6.9-4.5
			c-1.9-1.9-3.4-4.2-4.5-6.9c-1.1-2.7-1.6-5.7-1.6-9V62.1c0-3.2,0.5-6.2,1.6-8.9c1.1-2.7,2.6-5.1,4.5-7c1.9-1.9,4.2-3.4,6.9-4.5
			c2.7-1.1,5.7-1.6,9-1.6H410.2z M409.9,66.5c0-3.5-1.8-5.3-5.3-5.3h-26.2c-3.5,0-5.3,1.8-5.3,5.3v60.2c0,3.5,1.8,5.3,5.3,5.3h26.2
			c3.5,0,5.3-1.8,5.3-5.3V66.5z"/>
		<path id="XMLID_118_" class="st0" d="M502.9,152.5h-26.1l-34-111.8h25.5l21.6,84.9L512,40.7h24.8L502.9,152.5z"/>
		<path id="XMLID_120_" class="st0" d="M551.9,40.7h22.4v111.8h-22.4V40.7z"/>
		<path id="XMLID_122_" class="st0" d="M671.9,40.7v21.1h-50.8v23h41.1v21.1h-41.1v25.5h50.8v21.1h-73.1V40.7H671.9z"/>
		<path id="XMLID_124_" class="st0" d="M742.5,66.5c0-3.5-1.8-5.3-5.3-5.3h-22.4c-3.5,0-5.3,1.8-5.3,5.3V77c0,1.8,0.4,3,1.3,3.6
			c0.9,0.7,2.2,1.2,4,1.6l28.9,6.2c3,0.6,5.9,1.6,8.6,2.8c2.7,1.2,5.1,2.8,7.1,4.7c2,1.9,3.6,4,4.8,6.5c1.2,2.5,1.8,5.3,1.8,8.4
			v20.2c0,3.3-0.5,6.3-1.6,9c-1.1,2.7-2.6,5-4.5,6.9c-1.9,1.9-4.2,3.4-7,4.5c-2.7,1.1-5.7,1.6-8.9,1.6h-34.8c-3.3,0-6.3-0.5-9-1.6
			c-2.7-1.1-5-2.6-6.9-4.5c-1.9-1.9-3.4-4.2-4.5-6.9c-1.1-2.7-1.6-5.7-1.6-9v-14.3H709v9.9c0,3.5,1.8,5.3,5.3,5.3h24.2
			c3.5,0,5.3-1.8,5.3-5.3v-11.8c0-1.8-0.4-3-1.3-3.6c-0.9-0.7-2.2-1.2-4-1.6l-28.9-6.2c-3-0.6-5.9-1.6-8.6-2.8
			c-2.7-1.2-5.1-2.8-7.1-4.7c-2-1.9-3.6-4-4.8-6.5c-1.2-2.5-1.8-5.3-1.8-8.4V62.1c0-3.2,0.5-6.2,1.6-8.9c1.1-2.7,2.6-5.1,4.5-7
			c1.9-1.9,4.2-3.4,6.9-4.5c2.7-1.1,5.7-1.6,9-1.6h32.9c6.5,0,11.8,2,15.9,6.1c4.1,4.1,6.1,9.4,6.1,15.9v13h-21.7V66.5z"/>
	</g>
</g>
<g id="Layer_2">
	<g id="XMLID_108_">
		<path id="XMLID_126_" class="st1" d="M85.6,40.7c6.5,0,11.8,2,15.9,6.1c4.1,4.1,6.1,9.4,6.1,15.9v67.7c0,3.3-0.5,6.3-1.6,9
			c-1.1,2.7-2.6,5-4.5,6.9c-1.9,1.9-4.2,3.4-7,4.5c-2.7,1.1-5.7,1.6-8.9,1.6H27.4V40.7H85.6z M80,131.4c3.5,0,5.3-1.8,5.3-5.3v-59
			c0-3.5-1.8-5.3-5.3-5.3H49.7v69.5H80z"/>
		<path id="XMLID_129_" class="st1" d="M129.5,40.7h22.4v44.1h38.5V40.7h22.4v111.8h-22.4v-46.6h-38.5v46.6h-22.4V40.7z"/>
		<path id="XMLID_131_" class="st1" d="M344,152.5h-21.1V78l-24.2,56.7h-16.1L258.3,78v74.5h-21.1V40.7h24.5l28.9,65.5l28.9-65.5
			H344V152.5z"/>
		<path id="XMLID_133_" class="st1" d="M425.3,40.1c6.5,0,11.8,2,15.9,6.1c4.1,4.1,6.1,9.4,6.1,15.9v68.9c0,3.3-0.5,6.3-1.6,9
			c-1.1,2.7-2.6,5-4.5,6.9c-1.9,1.9-4.2,3.4-7,4.5c-2.7,1.1-5.7,1.6-8.9,1.6h-37.4c-3.3,0-6.3-0.5-9-1.6c-2.7-1.1-5-2.6-6.9-4.5
			c-1.9-1.9-3.4-4.2-4.5-6.9c-1.1-2.7-1.6-5.7-1.6-9V62.2c0-3.2,0.5-6.2,1.6-8.9c1.1-2.7,2.6-5.1,4.5-7c1.9-1.9,4.2-3.4,6.9-4.5
			c2.7-1.1,5.7-1.6,9-1.6H425.3z M425,66.5c0-3.5-1.8-5.3-5.3-5.3h-26.2c-3.5,0-5.3,1.8-5.3,5.3v60.2c0,3.5,1.8,5.3,5.3,5.3h26.2
			c3.5,0,5.3-1.8,5.3-5.3V66.5z"/>
		<path id="XMLID_136_" class="st1" d="M518,152.5h-26.1l-34-111.8h25.5l21.6,84.9l22.2-84.9H552L518,152.5z"/>
		<path id="XMLID_138_" class="st1" d="M567,40.7h22.4v111.8H567V40.7z"/>
		<path id="XMLID_140_" class="st1" d="M687,40.7v21.1h-50.8v23h41.1v21.1h-41.1v25.5H687v21.1h-73.1V40.7H687z"/>
		<path id="XMLID_142_" class="st1" d="M757.6,66.5c0-3.5-1.8-5.3-5.3-5.3H730c-3.5,0-5.3,1.8-5.3,5.3v10.6c0,1.8,0.4,3,1.3,3.6
			c0.9,0.7,2.2,1.2,4,1.6l28.9,6.2c3,0.6,5.9,1.6,8.6,2.8c2.7,1.2,5.1,2.8,7.1,4.7c2,1.9,3.6,4,4.8,6.5c1.2,2.5,1.8,5.3,1.8,8.4
			v20.2c0,3.3-0.5,6.3-1.6,9c-1.1,2.7-2.6,5-4.5,6.9c-1.9,1.9-4.2,3.4-7,4.5c-2.7,1.1-5.7,1.6-8.9,1.6h-34.8c-3.3,0-6.3-0.5-9-1.6
			c-2.7-1.1-5-2.6-6.9-4.5c-1.9-1.9-3.4-4.2-4.5-6.9c-1.1-2.7-1.6-5.7-1.6-9v-14.3h21.7v9.9c0,3.5,1.8,5.3,5.3,5.3h24.2
			c3.5,0,5.3-1.8,5.3-5.3v-11.8c0-1.8-0.4-3-1.3-3.6c-0.9-0.7-2.2-1.2-4-1.6l-28.9-6.2c-3-0.6-5.9-1.6-8.6-2.8
			c-2.7-1.2-5.1-2.8-7.1-4.7c-2-1.9-3.6-4-4.8-6.5c-1.2-2.5-1.8-5.3-1.8-8.4V62.2c0-3.2,0.5-6.2,1.6-8.9c1.1-2.7,2.6-5.1,4.5-7
			c1.9-1.9,4.2-3.4,6.9-4.5c2.7-1.1,5.7-1.6,9-1.6h32.9c6.5,0,11.8,2,15.9,6.1c4.1,4.1,6.1,9.4,6.1,15.9v13h-21.7V66.5z"/>
	</g>
	<g id="XMLID_3_">
	</g>
	<g id="XMLID_144_">
	</g>
	<g id="XMLID_145_">
	</g>
	<g id="XMLID_146_">
	</g>
	<g id="XMLID_147_">
	</g>
	<g id="XMLID_148_">
	</g>
	<g id="XMLID_149_">
	</g>
	<g id="XMLID_150_">
	</g>
	<g id="XMLID_151_">
	</g>
	<g id="XMLID_152_">
	</g>
	<g id="XMLID_153_">
	</g>
	<g id="XMLID_154_">
	</g>
	<g id="XMLID_155_">
	</g>
	<g id="XMLID_156_">
	</g>
	<g id="XMLID_157_">
	</g>
</g>
</svg>
