<?xml version="1.0" encoding="utf-8"?>
<!-- Generator: Adobe Illustrator 19.0.0, SVG Export Plug-In . SVG Version: 6.00 Build 0)  -->
<svg version="1.1" xmlns="http://www.w3.org/2000/svg" xmlns:xlink="http://www.w3.org/1999/xlink" x="0px" y="0px"
	 viewBox="0 0 224.9 187.8" style="enable-background:new 0 0 224.9 187.8;" xml:space="preserve">
<style type="text/css">
	.st0{fill:#CCCCCC;}
	.st1{fill:#214252;}
</style>
<g id="Layer_1">
	<g id="XMLID_2_">
		<path id="XMLID_147_" class="st0" d="M70.5,21.7c6.5,0,11.8,2,15.9,6.1c4.1,4.1,6.1,9.4,6.1,15.9v67.7c0,3.3-0.5,6.3-1.6,9
			c-1.1,2.7-2.6,5-4.5,6.9c-1.9,1.9-4.2,3.4-7,4.5c-2.7,1.1-5.7,1.6-8.9,1.6H12.3V21.7H70.5z M64.9,112.4c3.5,0,5.3-1.8,5.3-5.3v-59
			c0-3.5-1.8-5.3-5.3-5.3H34.6v69.5H64.9z"/>
		<path id="XMLID_150_" class="st0" d="M114.4,21.7h22.4v44.1h38.5V21.7h22.4v111.8h-22.4V86.9h-38.5v46.6h-22.4V21.7z"/>
	</g>
</g>
<g id="Layer_2">
	<g id="XMLID_108_">
		<path id="XMLID_152_" class="st1" d="M85.6,21.7c6.5,0,11.8,2,15.9,6.1c4.1,4.1,6.1,9.4,6.1,15.9v67.7c0,3.3-0.5,6.3-1.6,9
			c-1.1,2.7-2.6,5-4.5,6.9c-1.9,1.9-4.2,3.4-7,4.5c-2.7,1.1-5.7,1.6-8.9,1.6H27.4V21.7H85.6z M80,112.4c3.5,0,5.3-1.8,5.3-5.3v-59
			c0-3.5-1.8-5.3-5.3-5.3H49.7v69.5H80z"/>
		<path id="XMLID_155_" class="st1" d="M129.5,21.7h22.4v44.1h38.5V21.7h22.4v111.8h-22.4V86.9h-38.5v46.6h-22.4V21.7z"/>
	</g>
	<g id="XMLID_146_">
	</g>
	<g id="XMLID_157_">
	</g>
	<g id="XMLID_158_">
	</g>
	<g id="XMLID_159_">
	</g>
	<g id="XMLID_160_">
	</g>
	<g id="XMLID_161_">
	</g>
	<g id="XMLID_162_">
	</g>
	<g id="XMLID_163_">
	</g>
	<g id="XMLID_164_">
	</g>
	<g id="XMLID_165_">
	</g>
	<g id="XMLID_166_">
	</g>
	<g id="XMLID_167_">
	</g>
	<g id="XMLID_168_">
	</g>
	<g id="XMLID_169_">
	</g>
	<g id="XMLID_170_">
	</g>
</g>
</svg>
